<?xml version="1.0" encoding="utf-8"?>
<!-- Generator: Adobe Illustrator 20.0.0, SVG Export Plug-In . SVG Version: 6.00 Build 0)  -->
<svg version="1.1" id="Capa_1" xmlns="http://www.w3.org/2000/svg" xmlns:xlink="http://www.w3.org/1999/xlink" x="0px" y="0px"
	 viewBox="0 0 512 301" style="enable-background:new 0 0 512 301;" xml:space="preserve">
<style type="text/css">
	.st0{fill:#D80027;}
</style>
<path class="st0" d="M402.9,75.5c-14.9,0-29.1,3-42,8.4l-30.9-60h43.2c4.7,0,8.5,3.8,8.5,8.5s-3.8,8.5-8.5,8.5H364
	c-4.9,0-8.8,3.9-8.8,8.8s3.9,8.8,8.8,8.8h9.2c14.4,0,26.1-11.7,26.1-26.1S387.6,6.3,373.2,6.3h-57.7c-3.1,0-5.9,1.6-7.5,4.2
	c-1.6,2.6-1.7,5.9-0.3,8.6L323.1,49H196.2l-12.8-25.1h20.2c4.9,0,8.8-3.9,8.8-8.8s-3.9-8.8-8.8-8.8H146c-4.9,0-8.8,3.9-8.8,8.8
	s3.9,8.8,8.8,8.8h17.7l17.1,33.5l-20.1,31.1c-15.4-8.3-32.9-13-51.6-13C48.9,75.5,0,124.4,0,184.6s48.9,109.1,109.1,109.1
	c57.2,0,104.3-44.3,108.8-100.3h25.8l-10,32.6h-5.8c-4.9,0-8.8,3.9-8.8,8.8c0,4.9,3.9,8.8,8.8,8.8h31.6c4.9,0,8.8-3.9,8.8-8.8
	c0-4.9-3.9-8.8-8.8-8.8H252l11.6-37.6l73.1-112.9l8.5,16.5c-30.9,19.3-51.5,53.6-51.5,92.6c0,60.2,48.9,109.1,109.1,109.1
	c60.2,0,109.1-48.9,109.1-109.1C512,124.4,463.1,75.5,402.9,75.5z M190,75.5l51.2,100.3h-23.3c-2.5-31.6-18.6-59.5-42.4-77.8
	L190,75.5z M200.2,175.8h-75l40.6-62.9C184.9,127.9,197.8,150.4,200.2,175.8z M109.1,276.1c-50.5,0-91.5-41.1-91.5-91.5
	c0-50.5,41.1-91.5,91.5-91.5c15.1,0,29.4,3.7,42,10.2l-49.4,76.5c-1.7,2.7-1.9,6.1-0.3,9c1.5,2.8,4.5,4.6,7.7,4.6h91.1
	C195.8,239.7,156.6,276.1,109.1,276.1z M256.5,167L205.2,66.5h116.4L256.5,167z M402.9,276.1c-50.5,0-91.5-41.1-91.5-91.5
	c0-32.2,16.8-60.6,42-76.9l41.7,80.9c1.6,3,4.6,4.8,7.8,4.8c1.4,0,2.7-0.3,4-1c4.3-2.2,6-7.5,3.8-11.8l-41.7-81
	c10.5-4.2,21.9-6.5,33.9-6.5c50.5,0,91.5,41.1,91.5,91.5C494.4,235.1,453.4,276.1,402.9,276.1z"/>
</svg>
